<svg viewBox="0 0 640 400" data-background-color="#28353b" preserveAspectRatio="xMidYMid meet" height="400" width="640" xmlns="http://www.w3.org/2000/svg" xmlns:xlink="http://www.w3.org/1999/xlink"><rect width="640" height="400" x="0" y="0" opacity="1" fill="#28353b" data-fill-palette-color="background" id="background"></rect><g id="tight-bounds" transform="matrix(1,0,0,1,122.24000000000001,174.05513513513515)"><svg viewBox="0 0 395.52 51.88972972972972" height="51.88972972972972" width="395.52"><g><svg viewBox="0 0 395.52 51.88972972972972" height="51.88972972972972" width="395.52"><g><svg viewBox="0 0 395.52 51.88972972972972" height="51.88972972972972" width="395.52"><g><svg viewBox="0 0 395.52 51.88972972972972" height="51.88972972972972" width="395.52"><g><svg viewBox="0 0 395.52 51.88972972972972" height="51.88972972972972" width="395.52"><g transform="matrix(1,0,0,1,0,0)"><svg width="395.52" viewBox="0 -34.95000076293945 266.3800048828125 34.95000076293945" height="51.88972972972972" data-palette-color="#ffffff"><g class="undefined-text-0" data-fill-palette-color="primary" id="text-0"><path d="M0-2.15L4.85-2.15 4.85-34.95 10.75-34.95 10.75-2.15 15.6-2.15 15.6 0 0 0 0-2.15ZM15.6-2.15L20.45-2.15 20.45-34.95 26.35-34.95 46.65-8.85 46.65-34.95 52.55-34.95 52.55-2.15 57.4-2.15 57.4 0 46.15 0 26.35-25.5 26.35 0 15.6 0 15.6-2.15ZM97.75-2.15L109.8-2.15 109.8 0 91.15 0 83.8-23.95 83.4-23.95 76.05 0 57.4 0 57.4-2.15 69.45-2.15 58-34.95 64.35-34.95 73.15-9.8 80.95-34.95 86.25-34.95 94.05-9.8 102.85-34.95 109.2-34.95 97.75-2.15ZM145.94-2.15L151.74-2.15 151.74 0 140.59 0 137.09-7.95 119.59-7.95 116.09 0 104.94 0 104.94-2.15 110.74-2.15 125.19-34.95 131.49-34.95 145.94-2.15ZM121.99-13.4L134.69-13.4 128.34-27.8 121.99-13.4ZM173.59-2.15L178.44-2.15 178.44 0 146.89 0 146.89-2.15 151.74-2.15 151.74-34.95 157.64-34.95 157.64-5.6 173.59-5.6 173.59-2.15ZM201.89-2.15L206.74-2.15 206.74 0 175.19 0 175.19-2.15 180.04-2.15 180.04-34.95 185.94-34.95 185.94-5.6 201.89-5.6 201.89-2.15ZM203.49-2.15L208.34-2.15 208.34-34.95 232.89-34.95 232.89-29.4 214.24-29.4 214.24-20.15 230.99-20.15 230.99-14.9 214.24-14.9 214.24-5.55 233.49-5.55 233.49-2.15 238.34-2.15 238.34 0 203.49 0 203.49-2.15ZM254.23-2.15L266.38-2.15 266.38 0 236.18 0 236.18-2.15 248.33-2.15 248.33-29.55 237.73-29.55 237.73-34.95 264.83-34.95 264.83-29.55 254.23-29.55 254.23-2.15Z" fill="#ffffff" data-fill-palette-color="primary"></path></g></svg></g></svg></g></svg></g></svg></g></svg></g></svg><rect width="395.52" height="51.88972972972972" fill="none" stroke="none" visibility="hidden"></rect></g><defs></defs></svg>