<svg id="visual" viewBox="0 0 900 600" width="900" height="600" xmlns="http://www.w3.org/2000/svg" xmlns:xlink="http://www.w3.org/1999/xlink" version="1.1"><rect x="0" y="0" width="900" height="600" fill="#2E3151"></rect><defs><linearGradient id="grad1_0" x1="33.3%" y1="0%" x2="100%" y2="100%"><stop offset="20%" stop-color="#ff3af9" stop-opacity="1"></stop><stop offset="80%" stop-color="#ff3af9" stop-opacity="1"></stop></linearGradient></defs><defs><linearGradient id="grad1_1" x1="33.3%" y1="0%" x2="100%" y2="100%"><stop offset="20%" stop-color="#ff3af9" stop-opacity="1"></stop><stop offset="80%" stop-color="#a24dcf" stop-opacity="1"></stop></linearGradient></defs><defs><linearGradient id="grad1_2" x1="33.3%" y1="0%" x2="100%" y2="100%"><stop offset="20%" stop-color="#594594" stop-opacity="1"></stop><stop offset="80%" stop-color="#a24dcf" stop-opacity="1"></stop></linearGradient></defs><defs><linearGradient id="grad1_3" x1="33.3%" y1="0%" x2="100%" y2="100%"><stop offset="20%" stop-color="#594594" stop-opacity="1"></stop><stop offset="80%" stop-color="#2e3151" stop-opacity="1"></stop></linearGradient></defs><defs><linearGradient id="grad2_0" x1="0%" y1="0%" x2="66.7%" y2="100%"><stop offset="20%" stop-color="#ff3af9" stop-opacity="1"></stop><stop offset="80%" stop-color="#ff3af9" stop-opacity="1"></stop></linearGradient></defs><defs><linearGradient id="grad2_1" x1="0%" y1="0%" x2="66.7%" y2="100%"><stop offset="20%" stop-color="#a24dcf" stop-opacity="1"></stop><stop offset="80%" stop-color="#ff3af9" stop-opacity="1"></stop></linearGradient></defs><defs><linearGradient id="grad2_2" x1="0%" y1="0%" x2="66.7%" y2="100%"><stop offset="20%" stop-color="#a24dcf" stop-opacity="1"></stop><stop offset="80%" stop-color="#594594" stop-opacity="1"></stop></linearGradient></defs><defs><linearGradient id="grad2_3" x1="0%" y1="0%" x2="66.7%" y2="100%"><stop offset="20%" stop-color="#2e3151" stop-opacity="1"></stop><stop offset="80%" stop-color="#594594" stop-opacity="1"></stop></linearGradient></defs><g transform="translate(900, 0)"><path d="M0 270.4C-42.8 256 -85.6 241.6 -127.5 220.8C-169.4 200.1 -210.5 173.1 -234.2 135.2C-257.9 97.4 -264.1 48.7 -270.4 0L0 0Z" fill="#403c73"></path><path d="M0 202.8C-32.1 192 -64.2 181.2 -95.6 165.6C-127.1 150.1 -157.9 129.8 -175.6 101.4C-193.4 73 -198.1 36.5 -202.8 0L0 0Z" fill="#7a4cb3"></path><path d="M0 135.2C-21.4 128 -42.8 120.8 -63.7 110.4C-84.7 100.1 -105.3 86.5 -117.1 67.6C-128.9 48.7 -132.1 24.3 -135.2 0L0 0Z" fill="#ce49e6"></path><path d="M0 67.6C-10.7 64 -21.4 60.4 -31.9 55.2C-42.4 50 -52.6 43.3 -58.5 33.8C-64.5 24.3 -66 12.2 -67.6 0L0 0Z" fill="#ff3af9"></path></g><g transform="translate(0, 600)"><path d="M0 -270.4C48.2 -263.9 96.4 -257.3 135.2 -234.2C174 -211 203.3 -171.3 224.3 -129.5C245.3 -87.7 257.8 -43.9 270.4 0L0 0Z" fill="#403c73"></path><path d="M0 -202.8C36.2 -197.9 72.3 -193 101.4 -175.6C130.5 -158.3 152.5 -128.5 168.2 -97.1C183.9 -65.8 193.4 -32.9 202.8 0L0 0Z" fill="#7a4cb3"></path><path d="M0 -135.2C24.1 -131.9 48.2 -128.7 67.6 -117.1C87 -105.5 101.7 -85.6 112.2 -64.8C122.6 -43.9 128.9 -21.9 135.2 0L0 0Z" fill="#ce49e6"></path><path d="M0 -67.6C12.1 -66 24.1 -64.3 33.8 -58.5C43.5 -52.8 50.8 -42.8 56.1 -32.4C61.3 -21.9 64.5 -11 67.6 0L0 0Z" fill="#ff3af9"></path></g></svg>