<svg xmlns="http://www.w3.org/2000/svg" viewBox="12.982999801635742 1 75.68599700927734 97.81300354003906" xml:space="preserve" x="0" y="0" height="71.71160648648649" width="55.48919098312889" class="icon-icon-0" data-fill-palette-color="accent" id="icon-0"><g fill-rule="evenodd" clip-rule="evenodd" fill="#fe6152" data-fill-palette-color="accent"><path d="M12.983 10.59l17.018 88.223-5.872-59.049 29.021-1.892-0.054-9.883L64.549 1 53.622 18.977z" fill="#fe6152" data-fill-palette-color="accent"></path><path d="M59.389 54.548l5.16-53.541-8.74 39.716-19.612 1.045 1.57 20.462-7.766 36.583 12.057-39.899z" fill="#fe6152" data-fill-palette-color="accent"></path><path d="M62.8 67.182l0.549-10.453-15.979 3.755-0.032 11.797-17.337 26.532 21.68-27.616zM65.711 62.394l14.841-4.731 1.509-12.532-15.899 2.095zM72.07 44.502l10.988-1.417 1.581-10.278-8.079-0.373L64.549 1l8.43 30.967z" fill="#fe6152" data-fill-palette-color="accent"></path><path d="M87.413 31.294l1.256-9.506-9.544-2.694L64.549 1l14.483 22.437-0.422 7z" fill="#fe6152" data-fill-palette-color="accent"></path></g></svg>