<svg id="visual" viewBox="0 0 960 540" width="960" height="540" xmlns="http://www.w3.org/2000/svg" xmlns:xlink="http://www.w3.org/1999/xlink" version="1.1"><rect x="0" y="0" width="960" height="540" fill="#1f1d2c"></rect><defs><linearGradient id="grad1_0" x1="43.8%" y1="0%" x2="100%" y2="100%"><stop offset="14.444444444444446%" stop-color="#1f1d2c" stop-opacity="1"></stop><stop offset="85.55555555555554%" stop-color="#1f1d2c" stop-opacity="1"></stop></linearGradient></defs><defs><linearGradient id="grad2_0" x1="0%" y1="0%" x2="56.3%" y2="100%"><stop offset="14.444444444444446%" stop-color="#1f1d2c" stop-opacity="1"></stop><stop offset="85.55555555555554%" stop-color="#1f1d2c" stop-opacity="1"></stop></linearGradient></defs><g transform="translate(960, 0)"><path d="M0 297C-53.2 290 -106.5 283 -148.5 257.2C-190.5 231.5 -221.3 187 -244.2 141C-267.1 95 -282.1 47.5 -297 0L0 0Z" fill="#525399"></path></g><g transform="translate(0, 540)"><path d="M0 -297C52.4 -289.5 104.9 -282 148.5 -257.2C192.1 -232.4 227 -190.3 250.3 -144.5C273.6 -98.7 285.3 -49.4 297 0L0 0Z" fill="#525399"></path></g></svg>