<svg id="Group_512" data-name="Group 512" xmlns="http://www.w3.org/2000/svg" xmlns:xlink="http://www.w3.org/1999/xlink" width="1500" height="1500" viewBox="0 0 1500 1500">
  <defs>
    <clipPath id="clip-path">
      <rect id="Rectangle_2386" data-name="Rectangle 2386" width="1108" height="1076" transform="translate(196 212)" fill="#fff"/>
    </clipPath>
  </defs>
  <g id="undraw_designer_re_5v95">
    <rect id="Rectangle_2385" data-name="Rectangle 2385" width="1500" height="1500" fill="#fff" opacity="0"/>
    <g id="Group_511" data-name="Group 511" clip-path="url(#clip-path)">
      <path id="Path_19043" data-name="Path 19043" d="M1238.42,508.979a525.089,525.089,0,0,0-34.47-54.038q-13.215-18.2-27.94-35.183h-.02a527.76,527.76,0,0,0-57.77-57.13q-6.345-5.391-12.87-10.562a524.771,524.771,0,0,0-129.307-75.5l.412,67.886L980.9,1118.31H595.31L573.624,345.916l1.616-66.8C386.2,358.561,253.458,545.353,253.458,763.136a524.885,524.885,0,0,0,17.077,133.213,516.17,516.17,0,0,0,17.421,54.234q3.683,9.66,7.771,19.149c1.314,3.08,2.652,6.134,4.039,9.177,1.781,3.974,3.634,7.937,5.537,11.85q2.211,4.619,4.543,9.176,3,5.977,6.2,11.865c1.645,3.08,3.339,6.13,5.058,9.17a527.013,527.013,0,0,0,104.882,131.08q17.846,16.17,37.138,30.67a525.689,525.689,0,0,0,631.206,0q10.5-7.875,20.57-16.28,6.675-5.55,13.15-11.32,1.71-1.53,3.41-3.07a527.478,527.478,0,0,0,98.29-119.74,517.093,517.093,0,0,0,26.62-50.494q3.135-6.846,6.1-13.813a517.424,517.424,0,0,0,22.81-65.5q1.41-5.171,2.74-10.378v-.013c.14-.6.3-1.214.45-1.815.91-3.656,1.78-7.336,2.61-11.016v-.013q4.065-17.793,6.84-36.017.36-2.337.69-4.674c.09-.564.17-1.128.23-1.693v-.012q2-14.077,3.23-28.362,1.92-22.431,1.93-45.378a522.111,522.111,0,0,0-65.58-254.157Z" fill="#f2f2f2"/>
      <path id="Path_19044" data-name="Path 19044" d="M1186.83,1079.97c31.09-41.98,43.05-101.1,18.86-147.4a240.648,240.648,0,0,1-114,119.628c-19.68,9.65-42.57,18.32-51.68,38.24-5.67,12.4-4.59,27.03-.04,39.88s12.31,24.27,19.98,35.54l.4,3.38C1108.63,1149.24,1155.74,1121.94,1186.83,1079.97Z" fill="#e6e6e6"/>
      <path id="Path_19045" data-name="Path 19045" d="M1204.66,932.944a205.526,205.526,0,0,1-42.81,119.076,88.52,88.52,0,0,1-19.87,19.39,50.8,50.8,0,0,1-25.41,8.35c-8.45.61-17.15.25-25.3,2.89a31.122,31.122,0,0,0-18.63,17.34c-4.51,9.96-5.17,20.93-5.45,31.69-.31,11.95-.44,24.36-6.07,35.22-.69,1.32,1.4,2.3,2.08.99,9.81-18.9,3.44-40.99,9.28-60.85,2.73-9.27,8.27-17.77,17.53-21.49,8.1-3.24,17.08-2.88,25.63-3.42a54.354,54.354,0,0,0,25.16-7.24,82.18,82.18,0,0,0,20.54-18.55,199.763,199.763,0,0,0,31.28-53.97,209.047,209.047,0,0,0,14.34-69.626c.04-1.477-2.25-1.267-2.3.2Z" fill="#fff"/>
      <path id="Path_19046" data-name="Path 19046" d="M1171.01,1041.51a30.9,30.9,0,0,0,39.33-7.22c.93-1.15-.81-2.65-1.75-1.5a28.6,28.6,0,0,1-36.59,6.64C1170.71,1038.68,1169.74,1040.76,1171.01,1041.51Z" fill="#fff"/>
      <path id="Path_19047" data-name="Path 19047" d="M1120.89,1080.02a59.414,59.414,0,0,1,4.39-43.12c.68-1.32-1.41-2.3-2.09-.98a61.811,61.811,0,0,0-4.47,44.87c.4,1.43,2.57.65,2.17-.77Z" fill="#fff"/>
      <path id="Path_19048" data-name="Path 19048" d="M1198.28,980.257a17.476,17.476,0,0,1-11.41-12.021c-.39-1.432-2.55-.648-2.17.775a19.568,19.568,0,0,0,12.6,13.327,1.19,1.19,0,0,0,1.53-.548,1.119,1.119,0,0,0,.04-.879,1.133,1.133,0,0,0-.59-.654Z" fill="#fff"/>
      <path id="Path_19049" data-name="Path 19049" d="M1032.63,895.73c.21.9.43,1.8.63,2.719a229.916,229.916,0,0,1,5.47,36.908c.08.96.14,1.934.2,2.9a242.41,242.41,0,0,1-11.58,88.518,235.4,235.4,0,0,1-13.68,33.07c-7.45,14.72-16.7,30.08-18.783,45.94a40.245,40.245,0,0,0-.4,4.98l61.713,58.71c.21.06.4.14.61.2l2.35,2.46c.32-.53.64-1.09.95-1.62.19-.31.36-.63.55-.93a6.782,6.782,0,0,1,.35-.6c.04-.07.08-.14.11-.2.12-.18.21-.36.31-.53q2.67-4.665,5.29-9.37a.075.075,0,0,0,.01-.05c13.22-23.98,24.54-49.28,31.67-75.49.21-.79.44-1.59.63-2.41a224.266,224.266,0,0,0,6.49-36.08,198.128,198.128,0,0,0,.86-20.09,165.486,165.486,0,0,0-8.59-50.924c-11.01-32.733-32.37-61.584-62.82-76.954C1034.19,896.489,1033.42,896.109,1032.63,895.73Z" fill="#e6e6e6"/>
      <path id="Path_19050" data-name="Path 19050" d="M1032.02,896.646a205.6,205.6,0,0,1,37.57,120.834,88.929,88.929,0,0,1-4.18,27.43,50.94,50.94,0,0,1-15.26,21.96c-6.38,5.56-13.55,10.51-18.46,17.53a31.077,31.077,0,0,0-4.42,25.05c2.39,10.66,8.47,19.83,14.74,28.58,6.95,9.72,14.32,19.71,16.37,31.78.24,1.46,2.5.99,2.25-.47-3.55-20.99-21.95-34.8-29.25-54.17-3.4-9.04-4.1-19.16,1.05-27.7,4.51-7.46,11.9-12.58,18.41-18.15a54.331,54.331,0,0,0,15.72-20.92,81.906,81.906,0,0,0,5.22-27.17,199.486,199.486,0,0,0-7.54-61.9,209.239,209.239,0,0,0-30.51-64.224c-.85-1.208-2.56.34-1.71,1.54Z" fill="#fff"/>
      <path id="Path_19051" data-name="Path 19051" d="M1070.57,1003.57a30.865,30.865,0,0,0,27.05-29.417c.05-1.48-2.25-1.631-2.3-.149a28.586,28.586,0,0,1-25.22,27.316c-1.47.17-1,2.43.47,2.25Z" fill="#fff"/>
      <path id="Path_19052" data-name="Path 19052" d="M1053.75,1064.47a59.461,59.461,0,0,1-22.48-37.06c-.25-1.46-2.5-.99-2.25.47a61.822,61.822,0,0,0,23.47,38.52c1.18.9,2.44-1.03,1.26-1.93Z" fill="#fff"/>
      <path id="Path_19053" data-name="Path 19053" d="M1055.44,938.262a17.488,17.488,0,0,1-16.36-2.73c-1.17-.913-2.43,1.017-1.27,1.924a19.609,19.609,0,0,0,18.09,3.06,1.2,1.2,0,0,0,.72-.5,1.116,1.116,0,0,0-.32-1.584A1.145,1.145,0,0,0,1055.44,938.262Z" fill="#fff"/>
      <path id="Path_19054" data-name="Path 19054" d="M220.522,844.869c-27.574-44.362-34.682-104.263-6.813-148.439a240.641,240.641,0,0,0,103.9,128.493c18.831,11.208,40.944,21.714,48.4,42.308,4.642,12.814,2.376,27.314-3.21,39.746s-14.241,23.194-22.8,33.8l-.677,3.334C292.83,920.259,248.1,889.231,220.522,844.869Z" fill="#e6e6e6"/>
      <path id="Path_19055" data-name="Path 19055" d="M214.707,696.883A205.536,205.536,0,0,0,247.7,819.045a88.611,88.611,0,0,0,18.223,20.937,50.858,50.858,0,0,0,24.651,10.388c8.367,1.288,17.075,1.638,24.983,4.936A31.114,31.114,0,0,1,332.7,874.1c3.687,10.285,3.457,21.282,2.857,32.028-.666,11.931-1.546,24.313,3.191,35.594.574,1.367-1.582,2.177-2.155.812-8.242-19.627-.1-41.131-4.308-61.4-1.965-9.458-6.795-18.382-15.722-22.836-7.806-3.894-16.785-4.262-25.268-5.494a54.265,54.265,0,0,1-24.482-9.259,81.879,81.879,0,0,1-18.962-20.161,199.463,199.463,0,0,1-26.787-56.322,209.148,209.148,0,0,1-8.631-70.565c.073-1.476,2.344-1.08,2.271.386Z" fill="#fff"/>
      <path id="Path_19056" data-name="Path 19056" d="M239.418,807.821a30.893,30.893,0,0,1-38.61-10.383c-.837-1.222,1.024-2.58,1.862-1.356a28.605,28.605,0,0,0,35.935,9.585c1.338-.638,2.143,1.519.813,2.154Z" fill="#fff"/>
      <path id="Path_19057" data-name="Path 19057" d="M286.241,850.276a59.433,59.433,0,0,0-.865-43.331c-.57-1.369,1.586-2.179,2.155-.812a61.817,61.817,0,0,1,.809,45.092c-.518,1.391-2.614.435-2.1-.949Z" fill="#fff"/>
      <path id="Path_19058" data-name="Path 19058" d="M217.218,744.561a17.479,17.479,0,0,0,12.356-11.055c.5-1.4,2.6-.439,2.1.949a19.584,19.584,0,0,1-13.643,12.259,1.19,1.19,0,0,1-1.484-.671,1.156,1.156,0,0,1,.672-1.482Z" fill="#fff"/>
      <path id="Path_19059" data-name="Path 19059" d="M389.2,673.766c-.287.881-.574,1.762-.85,2.659a229.791,229.791,0,0,0-8.455,36.341c-.157.95-.3,1.916-.43,2.869A242.315,242.315,0,0,0,383.8,804.8a235.348,235.348,0,0,0,10.947,34.065c6.226,15.276,14.194,31.344,14.983,47.312a40.3,40.3,0,0,1-.007,5l-66.281,53.5c-.212.047-.412.108-.624.155l-2.549,2.257c-.272-.554-.543-1.135-.815-1.689-.16-.321-.3-.654-.464-.975-.1-.217-.2-.436-.306-.626-.034-.073-.067-.146-.089-.2-.1-.191-.181-.379-.273-.554q-2.281-4.863-4.5-9.775c-.013-.015-.013-.015-.01-.042-11.221-24.978-20.454-51.112-25.424-77.815-.15-.8-.312-1.622-.431-2.45a224.544,224.544,0,0,1-3.54-36.5,198.308,198.308,0,0,1,.782-20.084A165.051,165.051,0,0,1,317.9,746.322c13.633-31.731,37.27-58.752,68.87-71.6C387.583,674.4,388.378,674.079,389.2,673.766Z" fill="#e6e6e6"/>
      <path id="Path_19060" data-name="Path 19060" d="M389.729,674.727a205.567,205.567,0,0,0-47.267,117.384,88.472,88.472,0,0,0,1.935,27.681,50.774,50.774,0,0,0,13.423,23.124c5.9,6.062,12.646,11.58,16.973,18.971a31.079,31.079,0,0,1,2.369,25.325c-3.253,10.431-10.063,19.072-17.017,27.292-7.72,9.125-15.884,18.482-18.9,30.339-.365,1.437-2.575.787-2.21-.648,5.245-20.63,24.706-32.9,33.557-51.617,4.129-8.734,5.65-18.765,1.206-27.691-3.886-7.805-10.834-13.5-16.865-19.588a54.193,54.193,0,0,1-13.968-22.122,81.81,81.81,0,0,1-2.993-27.5,199.388,199.388,0,0,1,12.548-61.085,209.257,209.257,0,0,1,35.627-61.535c.948-1.135,2.523.547,1.581,1.674Z" fill="#fff"/>
      <path id="Path_19061" data-name="Path 19061" d="M342.616,778.17a30.86,30.86,0,0,1-24.572-31.519,1.153,1.153,0,0,1,2.3.038,28.574,28.574,0,0,0,22.917,29.272c1.452.294.795,2.5-.649,2.209Z" fill="#fff"/>
      <path id="Path_19062" data-name="Path 19062" d="M354.421,840.236a59.472,59.472,0,0,0,25.418-35.118c.37-1.436,2.58-.786,2.21.648a61.858,61.858,0,0,1-26.524,36.489c-1.251.8-2.348-1.225-1.1-2.02Z" fill="#fff"/>
      <path id="Path_19063" data-name="Path 19063" d="M363.007,714.3a17.491,17.491,0,0,0,16.527-1.393c1.24-.814,2.336,1.211,1.1,2.02a19.6,19.6,0,0,1-18.28,1.581,1.188,1.188,0,0,1-.78-1.428,1.157,1.157,0,0,1,1.429-.78Z" fill="#fff"/>
      <path id="Path_19064" data-name="Path 19064" d="M732.374,392.035a72.92,72.92,0,1,0-72.977-72.92A72.948,72.948,0,0,0,732.374,392.035Z" fill="#ff6584"/>
      <path id="Path_19065" data-name="Path 19065" d="M955.813,315.311a268.15,268.15,0,0,0-20.8-19.726c-14.217-12.047-29.956-22.29-47.5-28.743a109.681,109.681,0,0,0-20.38-5.361c-.834-.135-1.657-.27-2.492-.38a.94.94,0,0,0-.184,0,2.288,2.288,0,0,0-.393-.074c-1.706-.22-3.413-.392-5.132-.515a88.981,88.981,0,0,0-27.549,2.478,91.656,91.656,0,0,0-15.224,5.3,136.271,136.271,0,0,0-14.278,8.084,85.661,85.661,0,0,1-7.612,4.109,94.958,94.958,0,0,1-23.94,7.655,107.579,107.579,0,0,1-16.942,1.669c-4.935.1-9.588.27-14.266,2.048A34.171,34.171,0,0,0,718.29,314.4a2.2,2.2,0,0,0,.982,2.417c1.265.908,2.492,1.938,3.831,2.748a12.038,12.038,0,0,0,3.732,1.018q3.166.662,6.347,1.288,11.694,2.319,23.486,4.11,23.719,3.588,47.708,5.054a2.43,2.43,0,0,0,.3.024,537.31,537.31,0,0,0,54.264.528c2.738-.111,5.464-.246,8.2-.4q17.109-.957,34.13-3.018,15.746-1.914,31.368-4.747,11.16-2.025,22.234-4.515a2.172,2.172,0,0,0,.945-3.594Z" fill="#e6e6e6"/>
      <path id="Path_19066" data-name="Path 19066" d="M804.131,412.544a238.353,238.353,0,0,0-34.756-30.571c-4.162-2.919-8.447-5.667-12.854-8.182a136.3,136.3,0,0,0-16.795-8.207c-1.289-.528-2.591-1.031-3.892-1.509a108.864,108.864,0,0,0-22.872-5.741c-.061-.012-.123,0-.184-.012-.123-.025-.258-.049-.381-.074a84.46,84.46,0,0,0-11.417-.7c-2.738,0-5.488.147-8.214.417a90.863,90.863,0,0,0-13.062,2.257c-2.124.528-4.236,1.141-6.311,1.84a90.063,90.063,0,0,0-8.9,3.46c-.049.024-.086.036-.135.061a132.735,132.735,0,0,0-14.143,8.023c-.1.061-.208.122-.307.184a89.19,89.19,0,0,1-16.3,7.63,99.34,99.34,0,0,1-14.953,3.95,105.812,105.812,0,0,1-16.942,1.656c-4.936.1-9.588.27-14.254,2.061a34.188,34.188,0,0,0-20.846,22.548,2.214,2.214,0,0,0,.982,2.417c1.265.907,2.5,1.926,3.831,2.735a11.756,11.756,0,0,0,3.732,1.018c2.111.442,4.223.884,6.347,1.3q11.694,2.318,23.5,4.1,16.188,2.448,32.51,3.913,7.734.719,15.481,1.178,19.871,1.2,39.777.932,4.107-.054,8.214-.184,24.381-.717,48.617-3.655a535.333,535.333,0,0,0,53.589-9.262,2.163,2.163,0,0,0,.945-3.582Z" fill="#e6e6e6"/>
      <path id="Path_19067" data-name="Path 19067" d="M622.23,216.842l64.291,887.748-128.582,11.4V228.137C573.261,216.178,595.255,214.307,622.23,216.842Z" fill="#ccc"/>
      <path id="Path_19068" data-name="Path 19068" d="M939.581,216.842,875.29,1104.59l128.58,11.4V228.137C988.55,216.178,966.556,214.307,939.581,216.842Z" fill="#ccc"/>
      <path id="Path_19069" data-name="Path 19069" d="M1006.9,228.523C1002.91,218.748,994.423,212,984.614,212H575.827c-13.64,0-24.726,13.077-24.726,29.166V1123.51a31.5,31.5,0,0,0,8.52,22.01,23.4,23.4,0,0,0,10.706,6.42,20.845,20.845,0,0,0,5.5.74H984.614a20.846,20.846,0,0,0,5.5-.74c11-2.96,19.226-14.57,19.226-28.43V241.166a33.6,33.6,0,0,0-2.44-12.643Zm-5.76,894.987c0,10.75-7.416,19.49-16.526,19.49H575.827c-7.55,0-13.947-6.01-15.9-14.19a22.571,22.571,0,0,1-.626-5.3V241.166c0-10.745,7.416-19.478,16.525-19.478H984.614a14.026,14.026,0,0,1,4.911.884c6.715,2.461,11.615,9.861,11.615,18.594Z" fill="#ccc"/>
      <path id="Path_19070" data-name="Path 19070" d="M1005.24,480.2H555.2v8.2H1005.24Z" fill="#ccc"/>
      <path id="Path_19071" data-name="Path 19071" d="M1005.24,310.912H555.2v8.2H1005.24Z" fill="#ccc"/>
      <path id="Path_19072" data-name="Path 19072" d="M1005.24,616.885H555.2v8.2H1005.24Z" fill="#ccc"/>
      <path id="Path_19073" data-name="Path 19073" d="M701.245,215.68h-8.208V733.065h8.208Z" fill="#ccc"/>
      <path id="Path_19074" data-name="Path 19074" d="M867.406,215.68H859.2V733.065h8.208Z" fill="#ccc"/>
      <path id="Path_19075" data-name="Path 19075" d="M1056.53,1101.42H517.585a36.957,36.957,0,0,0-36.929,36.9,36.477,36.477,0,0,0,2.664,13.73,36.938,36.938,0,0,0,34.265,23.19H1056.53a36.954,36.954,0,0,0,31.87-18.28,35.465,35.465,0,0,0,2.41-4.91,36.475,36.475,0,0,0,2.66-13.73,36.959,36.959,0,0,0-36.94-36.9Z" fill="#ccc"/>
      <path id="Path_19076" data-name="Path 19076" d="M1005.24,713.93h-447.3v27.336h447.3Z" fill="#ccc"/>
      <path id="Path_19077" data-name="Path 19077" d="M777.486,705.729h8.207a15.04,15.04,0,0,1,15.047,15.035h-38.3a15.043,15.043,0,0,1,15.047-15.035Z" fill="#ccc"/>
      <path id="Path_19078" data-name="Path 19078" d="M789.48,791.025a84.7,84.7,0,1,0-84.77-84.7A84.737,84.737,0,0,0,789.48,791.025Z" fill="#ffb8b8"/>
      <path id="Path_19079" data-name="Path 19079" d="M694.917,624.835c.641-9.727,7.078-19.681,27.532-24.882,0,0,35.1-44.851,82.8-21.331,0,0,23.125-3.975,40.272,20,0,0,17-10.019,24.173,7.739,0,0,19.939,36.223,12.6,73.17s-11.1,41.559-11.1,41.559,9.357-76.425-44.535-71.126-97.279-13.638-109.484,27.825c-10.134,34.428-8.857,52.309-8.857,52.309s-33.888-34.345-22.366-61.39C691.845,654.875,693.928,639.836,694.917,624.835Z" fill="#2f2e41"/>
      <path id="Path_19080" data-name="Path 19080" d="M558.958,1169.23H1027.84c-3.13-35.74-5.18-172.356-5.18-181.347,0-39.657-32.474-82.935-32.474-82.935l-11.625-6.421-97.075-30.263-25.122-32.607a27.948,27.948,0,0,0-22.374-10.916l-79.359.595a28.029,28.029,0,0,0-18.819,7.452L686.67,878.34l-72.076,34.392-.122-.122-.753.559-10.7,7.7-6.88,4.969s-18.049,21.639-32.475,86.535C561.5,1022.13,559.973,1148.5,558.958,1169.23Z" fill="#ff639d"/>
      <path id="Path_19081" data-name="Path 19081" d="M1136.37,1152.05q-1.7,1.545-3.41,3.07-6.48,5.76-13.15,11.32-10.08,8.4-20.57,16.28h-631.2q-19.281-14.46-37.138-30.67Z" fill="#ccc"/>
      <path id="Path_19082" data-name="Path 19082" d="M905,1159.41H672.963l4.91-23.3H900.086Z" fill="#2f2e41"/>
      <path id="Path_19083" data-name="Path 19083" d="M1114.92,1058.82h-60.38a9.309,9.309,0,0,0-7.15,3.31,13.781,13.781,0,0,0-2.56-.24,14.31,14.31,0,1,0,6.24,27.17l1.01,12.37,4,48.87a8.511,8.511,0,0,0,.76,1.75,9.324,9.324,0,0,0,3.46,3.59,9.419,9.419,0,0,0,4.8,1.32h39.26a9.447,9.447,0,0,0,8.28-4.91,9.33,9.33,0,0,0,.75-1.75l10.56-79.27a9.443,9.443,0,0,0-9.03-12.21Zm-70.09,27.6a10.225,10.225,0,0,1,0-20.45c.19,0,.36.05.54.06a9.431,9.431,0,0,0,.15,5l4.32,14.03a10.124,10.124,0,0,1-5.01,1.36Z" fill="#3f3d56"/>
      <path id="Path_19084" data-name="Path 19084" d="M978.549,799.449H596.342a12.4,12.4,0,0,0-12.388,12.378V1069.54a12.4,12.4,0,0,0,12.388,12.38H978.549a12.4,12.4,0,0,0,12.388-12.38V811.827a12.4,12.4,0,0,0-12.388-12.378Z" fill="#3f3d56"/>
      <path id="Path_19085" data-name="Path 19085" d="M830.489,1005.95H741.075a4.768,4.768,0,0,0-4.763,4.77v141.14h98.952V1010.72a4.757,4.757,0,0,0-.362-1.83,4.748,4.748,0,0,0-2.585-2.58,4.777,4.777,0,0,0-1.828-.36Zm-44.406,80.19a10.594,10.594,0,0,1-10.558-10.55v-16.28a10.558,10.558,0,0,1,21.116,0v16.28a10.6,10.6,0,0,1-10.558,10.55Z" fill="#2f2e41"/>
      <path id="Path_19086" data-name="Path 19086" d="M736.005,1147.34v13.62a2.667,2.667,0,0,0,2.664,2.66h94.238a2.653,2.653,0,0,0,1.88-.78,2.686,2.686,0,0,0,.784-1.88v-13.62Z" fill="#3f3d56"/>
      <path id="Path_19087" data-name="Path 19087" d="M970.422,1066.85a6.03,6.03,0,1,0-6.034-6.03A6.032,6.032,0,0,0,970.422,1066.85Z" fill="#2f2e41"/>
      <path id="Path_19088" data-name="Path 19088" d="M644.59,1052.07a2.237,2.237,0,0,0-.808.16,2.119,2.119,0,0,0-.685.46,2.222,2.222,0,0,0-.458.68,2.166,2.166,0,0,0-.16.81v10.86a2.112,2.112,0,0,0,4.223,0v-10.86a2.167,2.167,0,0,0-.161-.81,2.2,2.2,0,0,0-.457-.68,2.118,2.118,0,0,0-.685-.46,2.238,2.238,0,0,0-.809-.16Z" fill="#2f2e41"/>
      <path id="Path_19089" data-name="Path 19089" d="M656.057,1052.07a2.233,2.233,0,0,0-.808.16,2.118,2.118,0,0,0-.685.46,2.2,2.2,0,0,0-.458.68,2.165,2.165,0,0,0-.16.81v10.86a2.112,2.112,0,0,0,4.223,0v-10.86a2.166,2.166,0,0,0-.161-.81,2.205,2.205,0,0,0-.458-.68,2.119,2.119,0,0,0-.685-.46,2.233,2.233,0,0,0-.808-.16Z" fill="#2f2e41"/>
      <path id="Path_19090" data-name="Path 19090" d="M667.524,1052.07a2.233,2.233,0,0,0-.808.16,2.119,2.119,0,0,0-.685.46,2.205,2.205,0,0,0-.458.68,2.166,2.166,0,0,0-.161.81v10.86a2.112,2.112,0,0,0,4.223,0v-10.86a2.165,2.165,0,0,0-.16-.81,2.2,2.2,0,0,0-.458-.68,2.119,2.119,0,0,0-.685-.46A2.233,2.233,0,0,0,667.524,1052.07Z" fill="#2f2e41"/>
      <path id="Path_19091" data-name="Path 19091" d="M678.991,1052.07a2.239,2.239,0,0,0-.809.16,2.129,2.129,0,0,0-.685.46,2.2,2.2,0,0,0-.457.68,2.167,2.167,0,0,0-.161.81v10.86a2.111,2.111,0,0,0,4.223,0v-10.86a2.166,2.166,0,0,0-.16-.81,2.222,2.222,0,0,0-.458-.68,2.119,2.119,0,0,0-.685-.46,2.237,2.237,0,0,0-.808-.16Z" fill="#2f2e41"/>
      <path id="Path_19092" data-name="Path 19092" d="M688.139,1153.28a31.9,31.9,0,1,0-31.92-31.9A31.909,31.909,0,0,0,688.139,1153.28Z" fill="#ffb8b8"/>
      <path id="Path_19093" data-name="Path 19093" d="M911.136,1159.41a31.9,31.9,0,1,0-31.92-31.89A31.907,31.907,0,0,0,911.136,1159.41Z" fill="#ffb8b8"/>
      <path id="Path_19094" data-name="Path 19094" d="M1240.61,742.529c-3.15-5.212-6.89-10.778-12.75-12.48-6.77-1.972-13.74,1.944-19.64,5.808a572.123,572.123,0,0,0-50.96,37.514l.02.2c12.67-.874,23.19,32.8,35.87,31.928,9.15-.631,20.78-35.9,28.87-40.226,3.07-1.643,6.07-3.837,9.55-3.99,4.32-.19,8.09,2.828,11.05,5.98,17.53,18.645,22.6,47.159,42.26,63.541a623.455,623.455,0,0,0-44.27-88.278Z" fill="#3f3d56"/>
      <path id="Path_19095" data-name="Path 19095" d="M1274.34,787.819q13.86,25.026,29.41,49.058v.012c-.06.565-.14,1.129-.23,1.693q-1.875-2.871-3.72-5.766-13.95-21.877-26.53-44.592-5.97-10.8-11.64-21.774-4.38-8.5-8.58-17.1c-.8-1.644-1.57-3.288-2.34-4.944-1.82-3.877-3.61-7.778-5.53-11.605-2.18-4.367-4.85-8.931-8.86-11.863a12.116,12.116,0,0,0-6.3-2.429,17.6,17.6,0,0,0-9.12,2.613,293.348,293.348,0,0,0-57.74,39.784,300.546,300.546,0,0,0-46.9,52.026c-.42.589-1.4.024-.98-.577,1.66-2.33,3.33-4.624,5.04-6.906a302.33,302.33,0,0,1,77.16-71.912q7.5-4.859,15.29-9.262c2.61-1.484,5.24-2.944,7.92-4.318a19.284,19.284,0,0,1,8.4-2.6c10.19-.159,15.46,11.372,19.09,19.125q1.7,3.662,3.45,7.312,6.6,13.8,13.73,27.38Q1269.755,779.545,1274.34,787.819Z" fill="#3f3d56"/>
      <path id="Path_19096" data-name="Path 19096" d="M1162.16,755.208c-.6-.659-1.18-1.319-1.78-1.978-4.7-5.191-9.74-10.323-16.19-13.3a23.492,23.492,0,0,0-9.84-2.279,28.1,28.1,0,0,0-10.22,2.226c-1.54.614-3.04,1.311-4.52,2.054-1.7.851-3.36,1.759-5.01,2.675q-4.665,2.575-9.2,5.379-9.03,5.578-17.5,12.007-4.4,3.335-8.6,6.887-3.915,3.3-7.67,6.778c-.53.493-1.33-.3-.8-.8.66-.614,1.33-1.224,2-1.827,1.88-1.7,3.8-3.373,5.74-5.011q5.325-4.486,10.92-8.627,8.715-6.442,18.01-12.011,4.65-2.779,9.43-5.327c.96-.512,1.93-1.013,2.92-1.488a46.5,46.5,0,0,1,6.93-2.822,24.69,24.69,0,0,1,10.48-1.028,27.235,27.235,0,0,1,9.67,3.341c6.33,3.538,11.24,9.008,16.03,14.347C1163.44,754.948,1162.64,755.751,1162.16,755.208Z" fill="#3f3d56"/>
      <path id="Path_19097" data-name="Path 19097" d="M1115.8,780.187a7.279,7.279,0,0,1-4.52-1.295c-3.51-2.654-3.41-9.027.28-19.485a21.98,21.98,0,0,1,11.92-12.8,20.413,20.413,0,0,1,16.43-.1c.45.2.9.408,1.34.634a48.559,48.559,0,0,1,8.4,5.956,55.536,55.536,0,0,0,6.99,5.164l.83.481-.78.549C1136.8,773.285,1123.32,780.187,1115.8,780.187Z" fill="#3f3d56"/>
      <path id="Path_19098" data-name="Path 19098" d="M1192.28,696.93a28.226,28.226,0,0,1-27.7-22.75,28.223,28.223,0,1,0,33.3,22.192,28.286,28.286,0,0,1-5.6.558Z" fill="#3f3d56"/>
      <path id="Path_19099" data-name="Path 19099" d="M436.413,742.32a42.106,42.106,0,1,0-42.138-42.106A42.122,42.122,0,0,0,436.413,742.32Z" fill="#3f3d56" opacity="0.74"/>
      <path id="Path_19100" data-name="Path 19100" d="M478.55,742.32a42.106,42.106,0,1,0-42.137-42.106A42.122,42.122,0,0,0,478.55,742.32Z" fill="#ff639d" opacity="0.74"/>
      <path id="Path_19101" data-name="Path 19101" d="M457.838,708.761a42.1,42.1,0,1,0-42.138-42.1A42.122,42.122,0,0,0,457.838,708.761Z" fill="#ff6584" opacity="0.74"/>
      <path id="Path_19102" data-name="Path 19102" d="M568.023,654.591,459.788,688.568l.736,2.341,108.235-33.977Z" fill="#3f3d56"/>
      <path id="Path_19103" data-name="Path 19103" d="M568.712,660.277a4.907,4.907,0,1,0-4.91-4.907A4.909,4.909,0,0,0,568.712,660.277Z" fill="#3f3d56"/>
      <path id="Path_19104" data-name="Path 19104" d="M1271.37,876.17c7.19,5.066,14.1,10.231,22.01,14.132-.15.6-.31,1.214-.45,1.815-.97-.454-1.92-.932-2.86-1.423-8.02-4.195-14.92-9.9-22.45-14.856a48.4,48.4,0,0,0-12.1-6.06,39.985,39.985,0,0,0-13.84-1.619c-19.48.957-36.18,12.574-54.29,18.426-8.86,2.87-18.29,4.4-27.53,2.6s-17.46-6.71-25.63-11.151c-8.05-4.392-16.83-8.808-26.23-8.808-7.66.012-15.72,3.079-19.82,9.851a.916.916,0,0,1-1.24.3.891.891,0,0,1-.42-.549.865.865,0,0,1,.08-.685,19.27,19.27,0,0,1,3.35-4.184c5.35-5.066,13.22-7.066,20.45-6.477,9.36.761,17.89,5.177,25.98,9.618,8.58,4.711,17.37,9.777,27.29,10.807,9.8,1.031,19.5-1.533,28.58-4.98,17.6-6.686,34.96-17.825,54.53-16.586C1256.01,866.932,1263.92,870.931,1271.37,876.17Z" fill="#3f3d56"/>
      <path id="Path_19105" data-name="Path 19105" d="M501.306,521.383v2.49a12.927,12.927,0,0,0-2.505-.245H485.959v27.553a15.4,15.4,0,0,1-15.4,15.383h-18.98v4.245a12.857,12.857,0,0,0,.994,4.956h-2.627a15.118,15.118,0,0,1-.823-4.956v-4.245H438.693v-2.453h10.435V536.558a15.4,15.4,0,0,1,15.4-15.384H483.5v-4.293h2.455v4.293H498.8a15.348,15.348,0,0,1,2.505.209Z" fill="#ff639d"/>
      <path id="Path_19106" data-name="Path 19106" d="M470.564,501.545H436.287a15.4,15.4,0,0,0-15.4,15.383v34.251a15.4,15.4,0,0,0,15.4,15.383h34.277a15.4,15.4,0,0,0,15.4-15.383v-34.3a15.395,15.395,0,0,0-15.4-15.334Zm12.94,49.634a12.952,12.952,0,0,1-12.94,12.93H436.287a12.952,12.952,0,0,1-12.94-12.93V516.928A12.954,12.954,0,0,1,436.287,504h34.277a12.952,12.952,0,0,1,12.94,12.881Z" fill="#3f3d56"/>
      <path id="Path_19107" data-name="Path 19107" d="M449.128,564.11v2.453h2.456V564.11Zm0,0v2.453h2.456V564.11Zm52.178-42.728a15.347,15.347,0,0,0-2.505-.208H464.524a15.4,15.4,0,0,0-15.4,15.383v34.251a15.117,15.117,0,0,0,.823,4.956,15.4,15.4,0,0,0,14.573,10.427H498.8A15.4,15.4,0,0,0,514.2,570.808V536.557a15.388,15.388,0,0,0-12.89-15.175Zm10.435,49.426a12.952,12.952,0,0,1-12.94,12.93H464.524a12.953,12.953,0,0,1-12.94-12.93V536.557a12.952,12.952,0,0,1,12.94-12.93H498.8a12.94,12.94,0,0,1,12.94,12.93Zm-62.613-6.7v2.453h2.456V564.11Z" fill="#3f3d56"/>
      <path id="Path_19108" data-name="Path 19108" d="M424.881,883.91H279.276a3.833,3.833,0,0,0-3.83,3.815v8.624a516.1,516.1,0,0,0,17.421,54.235H424.881a3.811,3.811,0,0,0,3.818-3.815V887.725a3.821,3.821,0,0,0-3.818-3.815Z" fill="#ff639d"/>
      <path id="Path_19109" data-name="Path 19109" d="M411.008,969.733H300.638c1.314,3.079,2.652,6.134,4.039,9.176H411.008C417,978.995,416.938,969.647,411.008,969.733Z" fill="#e4e4e4"/>
      <path id="Path_19110" data-name="Path 19110" d="M411.008,990.76H310.214q2.21,4.618,4.543,9.176h96.251C417,1000.02,416.938,990.687,411.008,990.76Z" fill="#e4e4e4"/>
      <path id="Path_19111" data-name="Path 19111" d="M411.008,1011.8H320.957c1.645,3.08,3.339,6.13,5.058,9.17h84.993C417,1021.06,416.938,1011.71,411.008,1011.8Z" fill="#e4e4e4"/>
      <path id="Path_19112" data-name="Path 19112" d="M1165.86,446.311h-.7a14.022,14.022,0,0,1,6.27,1.482h-3.18a12.959,12.959,0,0,0-12.94,12.929v34.252a12.959,12.959,0,0,0,12.94,12.929h2.03a14.088,14.088,0,0,1-5.12.972h.7a14.188,14.188,0,0,0,14.17-14.157V460.467a14.188,14.188,0,0,0-14.17-14.156Z" fill="#3f3d56"/>
      <path id="Path_19113" data-name="Path 19113" d="M1165.86,446.311h-.7a14.022,14.022,0,0,1,6.27,1.482h-3.18a12.959,12.959,0,0,0-12.94,12.929v34.252a12.959,12.959,0,0,0,12.94,12.929h2.03a14.088,14.088,0,0,1-5.12.972h.7a14.188,14.188,0,0,0,14.17-14.157V460.467a14.188,14.188,0,0,0-14.17-14.156Z" opacity="0.21"/>
      <path id="Path_19114" data-name="Path 19114" d="M1075.01,446.311h-.7a14.021,14.021,0,0,1,6.27,1.482h-3.18a12.959,12.959,0,0,0-12.94,12.929v34.252A12.959,12.959,0,0,0,1077.4,507.9h2.03a14.088,14.088,0,0,1-5.12.972h.7a14.188,14.188,0,0,0,14.17-14.157V460.467a14.188,14.188,0,0,0-14.17-14.156Z" fill="#ff639d"/>
      <path id="Path_19115" data-name="Path 19115" d="M1075.01,446.311h-.7a14.021,14.021,0,0,1,6.27,1.482h-3.18a12.959,12.959,0,0,0-12.94,12.929v34.252A12.959,12.959,0,0,0,1077.4,507.9h2.03a14.088,14.088,0,0,1-5.12.972h.7a14.188,14.188,0,0,0,14.17-14.157V460.467a14.188,14.188,0,0,0-14.17-14.156Z" opacity="0.21"/>
      <path id="Path_19116" data-name="Path 19116" d="M1077.54,508.011a12.942,12.942,0,0,1-12.94-12.929V460.83a12.943,12.943,0,0,1,12.94-12.93h3.18a14.053,14.053,0,0,0-6.27-1.482h-34.28A14.188,14.188,0,0,0,1026,460.574v34.252a14.188,14.188,0,0,0,14.17,14.156h34.28a14.086,14.086,0,0,0,5.12-.971Z" fill="#ff639d"/>
      <path id="Path_19117" data-name="Path 19117" d="M1168.39,508.011a12.942,12.942,0,0,1-12.94-12.929V460.83a12.943,12.943,0,0,1,12.94-12.93h3.18a14.053,14.053,0,0,0-6.27-1.482h-34.28a14.188,14.188,0,0,0-14.17,14.156v34.252a14.188,14.188,0,0,0,14.17,14.156h34.28a14.086,14.086,0,0,0,5.12-.971Z" fill="#3f3d56"/>
      <path id="Path_19118" data-name="Path 19118" d="M1208.87,454.941a525.031,525.031,0,0,1,34.46,54.039h-21.46a14.191,14.191,0,0,1-14.17-14.157V460.572a14.17,14.17,0,0,1,1.17-5.631Z" fill="#ff6584"/>
      <path id="Path_19119" data-name="Path 19119" d="M1165.83,526.951l-12-17.972-8.78-13.138a4.884,4.884,0,0,0-8.73,1.263l-3.69,11.875-7.44,23.86a4.841,4.841,0,0,0,0,2.917,4.9,4.9,0,0,0,7.24,2.69l2.64-1.632a3.67,3.67,0,0,1,4.95,1.052,3.609,3.609,0,0,1,.62,1.733l2.42,26.375a4.894,4.894,0,0,0,4.86,4.441c.15,0,.3-.013.46-.025l3.7-.331a4.856,4.856,0,0,0,4.42-5.312l-2.49-27.234a3.659,3.659,0,0,1,5.18-3.655l.54.245a4.882,4.882,0,0,0,5.76-1.267,4.876,4.876,0,0,0,.34-5.885Z" fill="#ccc"/>
      <path id="Path_25492" data-name="Path 25492" d="M8.469,0c4.677,0,8.469,4.55,8.469,10.163S13.147,20.326,8.469,20.326,0,15.776,0,10.163,3.792,0,8.469,0Z" transform="translate(742.573 697.738)" fill="#2f2e41"/>
      <path id="Path_25493" data-name="Path 25493" d="M8.469,0c4.677,0,8.469,4.55,8.469,10.163S13.147,20.326,8.469,20.326,0,15.776,0,10.163,3.792,0,8.469,0Z" transform="translate(819.448 697.738)" fill="#2f2e41"/>
      <path id="Path_25494" data-name="Path 25494" d="M762.439,750s37.444,16.625,60.152,0" fill="none" stroke="#2f2e41" stroke-linecap="round" stroke-width="3"/>
    </g>
  </g>
  <path id="Path_19144" data-name="Path 19144" d="M605.243,194.7l12.795-10.233c-9.94-1.1-14.024,4.324-15.7,8.615-7.765-3.224-16.219,1-16.219,1l25.6,9.294a19.372,19.372,0,0,0-6.481-8.677Z" transform="translate(570 136.604)" fill="#3f3d56"/>
  <path id="Path_19145" data-name="Path 19145" d="M799.827,298.936,812.622,288.7c-9.94-1.1-14.024,4.324-15.7,8.615-7.765-3.224-16.219,1-16.219,1l25.6,9.294A19.372,19.372,0,0,0,799.827,298.936Z" transform="translate(-297 -11.396)" fill="#3f3d56"/>
  <path id="Path_19146" data-name="Path 19146" d="M589.955,387.889l12.795-10.233c-9.94-1.1-14.024,4.324-15.7,8.615-7.765-3.224-16.219,1-16.219,1l25.6,9.294a19.372,19.372,0,0,0-6.481-8.677Z" transform="translate(-297 -11.396)" fill="#3f3d56"/>
</svg>
