<svg id="undraw_interview_re_e5jn" xmlns="http://www.w3.org/2000/svg" xmlns:xlink="http://www.w3.org/1999/xlink" width="1500" height="1500" viewBox="0 0 1500 1500">
  <defs>
    <clipPath id="clip-path">
      <rect id="Rectangle_2483" data-name="Rectangle 2483" width="1151" height="875" transform="translate(174 312)" fill="#fff"/>
    </clipPath>
  </defs>
  <g id="undraw_interview_re_e5jn-2" data-name="undraw_interview_re_e5jn">
    <rect id="Rectangle_2482" data-name="Rectangle 2482" width="1500" height="1500" fill="#fff" opacity="0"/>
    <g id="Group_588" data-name="Group 588" clip-path="url(#clip-path)">
      <path id="Path_22286" data-name="Path 22286" d="M1238.94,1107.33c-37.71,28.73-83.65,57.84-128.82,71.56a182.892,182.892,0,0,1-40.06,7.75,120.913,120.913,0,0,1-37.92-2.94c-32.6-8.11-62.843-22.32-92.1-38.92-9.559-5.43-19.007-11.11-28.4-16.92-15.333-9.48-30.515-19.29-45.738-28.87-2.279-1.45-4.544-2.87-6.824-4.28h-.013q-5.512-3.465-11.051-6.83c-.65-.4-1.3-.79-1.962-1.19q-10.464-6.345-21.287-12.39c-.884-.49-1.768-.99-2.652-1.47a467.017,467.017,0,0,0-42.989-21.05c-9.642-4.06-19.409-7.72-29.272-10.85h-.013c-3.772-1.19-7.557-2.31-11.355-3.33a237.151,237.151,0,0,0-34.728-6.8,189.444,189.444,0,0,0-48.639.39c-1.091.15-2.169.3-3.26.48-43.652,7-83.491,30.57-127.336,36.13-1.423.18-2.832.35-4.255.47-.607.05-1.215.12-1.823.17a174.631,174.631,0,0,1-38.237-.94c-35.4-4.68-69.884-19.17-100.924-37.44-72.564-42.724-131.411-108.386-167.189-184.427a411.4,411.4,0,0,1-16.341-39.984A385.015,385.015,0,0,1,174.1,688.381c-3.356-138.7,75.424-277.864,199.113-340.6S659.646,305.8,759.41,402.169c60.518,58.461,95.536,137.681,141.08,208.457s110.28,138.359,193.77,148.669c42.53,5.252,87.04-4.906,127.8,8.306,22.57,7.325,41.83,21.339,57.34,39.2a175.962,175.962,0,0,1,25.95,40.079,197.265,197.265,0,0,1,12.06,32.534q.84,3.09,1.6,6.178C1339.31,968.567,1306.87,1055.55,1238.94,1107.33Z" fill="#f2f2f2"/>
      <path id="Path_22287" data-name="Path 22287" d="M559.634,957.109H429.784a35.234,35.234,0,0,0-35.226,35.243h0a35.228,35.228,0,0,0,35.226,35.238h129.85a35.24,35.24,0,0,0,0-70.481Z" fill="#3f3d56"/>
      <path id="Path_22288" data-name="Path 22288" d="M520.264,1009.63v58.64a173.725,173.725,0,0,1-40.06-.77v-57.87Z" fill="#3f3d56"/>
      <path id="Path_22289" data-name="Path 22289" d="M655.115,1031.19c-1.091.15-2.169.3-3.26.48-43.652,7-83.491,30.57-127.336,36.13-1.423.18-2.832.34-4.255.47-.607.05-1.215.12-1.823.16-10.706-10.49-21.412-21.65-31.468-33.22-5.457-6.26-10.733-12.65-15.693-19.11-12.874-16.7-23.787-33.865-31-50.726.732-8.085-4.3-26.784-6.7-41.1l-.013-.013c-1.023-6.012-1.575-11.237-1.064-14.595,2.929-19.377,18.745-17.151,23.608-36.141a107.086,107.086,0,0,1,13.966-9.827c.815-.483,1.643-.967,2.5-1.451l52.769-36.486,20.168,19.791,30.694,30.129,33.264,32.631-28.235,28.539s23.594,27.213,51.18,63.492C639.823,1010.08,647.517,1020.49,655.115,1031.19Z" fill="#2f2e41"/>
      <path id="Path_22290" data-name="Path 22290" d="M1110.12,1009.63v169.26a182.315,182.315,0,0,1-40.06,7.75V1009.63Z" fill="#3f3d56"/>
      <path id="Path_22291" data-name="Path 22291" d="M1161.92,995.809H1032.07a35.234,35.234,0,0,0-35.228,35.241h0a35.227,35.227,0,0,0,35.228,35.24h129.85a35.241,35.241,0,0,0,0-70.481Z" fill="#3f3d56"/>
      <path id="Path_22292" data-name="Path 22292" d="M846.05,1086.69q-10.464-6.345-21.287-12.39l-2.652-1.47,4.752-2.03,12.819-5.51.124-.06.138.47Z" fill="#ffb6b6"/>
      <path id="Path_22293" data-name="Path 22293" d="M865.9,1098.99c-2.28-1.45-4.545-2.87-6.824-4.28h-.014q-5.512-3.465-11.051-6.83c-.65-.4-1.3-.79-1.962-1.19q-10.464-6.345-21.287-12.4c-.884-.48-1.768-.98-2.652-1.46a466.894,466.894,0,0,0-42.989-21.05c-9.642-4.06-19.408-7.73-29.272-10.85h-.013l-7.75-12.98-34.88-58.445-7.667-12.839s-26.149,7.74-63.156,15.161c-13.469,2.709-28.36,5.363-43.984,7.6-16.7,2.377-34.217,4.27-51.622,5.182-8.3.443-16.577.664-24.727.595-21.066-.138-41.3-2.115-59.026-6.814-5.913-5.556-23.733-13.116-36.5-20.04h-.013c-5.36-2.9-9.808-5.68-12.143-8.154-13.454-14.235-1.961-25.333-13.924-40.868a107.907,107.907,0,0,1,.87-17.054c.124-.94.249-1.894.4-2.861l3.771-64.073,28.014-3.7L470.134,816l46.18-6.108,5.083,39.831s35.958-1.825,81.516-1.216c73.172.995,171.084,8.292,184.345,39.61,1.244,2.943,2.487,5.915,3.73,8.886q4.434,10.656,8.786,21.422c10.512,25.983,20.541,52.215,29.7,77.009,5.691,15.427,11.051,30.3,15.982,44.217,3.965,11.19,7.639,21.78,11,31.52,3.067,8.9,5.843,17.1,8.316,24.45C865.155,1096.77,865.528,1097.9,865.9,1098.99Z" fill="#2f2e41"/>
      <path id="Path_22294" data-name="Path 22294" d="M608.2,710.786,519.71,635.6l57.57-58.291,40.163,65.818,148.878,29.53a28.889,28.889,0,1,1-4.1,42.4Z" fill="#a0616a"/>
      <path id="Path_22295" data-name="Path 22295" d="M441.51,536.789c-10.226,33.284,87.165,112.666,87.165,112.666,1.082-7.991,56.3,60.912,60.056,54.672,10.677-17.735,22.425-61.574,34.751-67.177,7.049-3.2-33.389-47.741-33.389-47.741s-20.628-27.3-47.863-61.909a73.764,73.764,0,0,0-65.041-28.969S451.736,503.505,441.51,536.789Z" fill="#3f3d56"/>
      <path id="Path_22296" data-name="Path 22296" d="M484.57,463.105a59.877,59.877,0,1,0-59.847-59.877A59.862,59.862,0,0,0,484.57,463.105Z" fill="#a0616a"/>
      <path id="Path_22297" data-name="Path 22297" d="M514.494,502.68c12.893,7.669,20.606,21.759,25.033,36.1a342.212,342.212,0,0,1,14.693,81.731l4.676,83.047,57.917,176.832c-50.194,42.493-238.868,9.658-238.868,9.658s-5.791-1.932,0-7.726,11.43-.661,5.639-6.456-1.8.661.131-5.134,0-1.931-1.93-3.863,14.945-19.315,14.945-19.315l-15.444-101.5L361.98,541.31c23.167-28.973,69.758-46.052,69.758-46.052l12.038-21.68,60.193,4.818Z" fill="#3f3d56"/>
      <path id="Path_22298" data-name="Path 22298" d="M533.905,371.419a27.753,27.753,0,0,1,9.853,13.847,195.069,195.069,0,0,0,.128-27.17c-.706-6.359-5.18-7.789-10.361-9.447-4.679-1.5-9.971-3.188-11.394-9.361-18.813-18.31-51.562-17.387-73.974-11-12.332,3.514-19.429,8.03-20.064,10.675l-.131.545-.5.25c-9.506,4.756-11.357,19.773-11.234,31.532.231,22.157,7.878,47.321,12.185,49.365.228.108.286.066.384-.016,6.487-5.186,14.4.394,17.877,3.427a62.256,62.256,0,0,1,55.734-52.821,97.725,97.725,0,0,0,13.433-2.254,28.273,28.273,0,0,1,6.862-.9,19.527,19.527,0,0,1,11.2,3.329Z" fill="#2f2e41"/>
      <path id="Path_22299" data-name="Path 22299" d="M458.495,801l-18.308-9.381a5.019,5.019,0,0,1,4.526-8.841l18.307,9.38A5.02,5.02,0,0,1,458.495,801Z" fill="#ff639d"/>
      <path id="Path_22300" data-name="Path 22300" d="M396.881,775.867,366.765,663.7l80.478-15.242-4.328,76.994L548.656,834.379A28.888,28.888,0,1,1,521.2,866.938Z" fill="#a0616a"/>
      <path id="Path_22301" data-name="Path 22301" d="M358.53,537.928c-27.317,21.576,7.744,142.263,7.744,142.263,5.429-5.96,11.737,82.129,18.372,79.13C403.5,750.8,438.068,721.4,451.393,723.8c7.62,1.37-.364-58.267-.364-58.267s-1.468-34.2-4.228-78.153a73.826,73.826,0,0,0-37.07-60.813S385.847,516.352,358.53,537.928Z" fill="#3f3d56"/>
      <path id="Path_22302" data-name="Path 22302" d="M1305.35,846.875,212.091,845.632a411.412,411.412,0,0,1-16.341-39.984L1279.4,806.8a175.961,175.961,0,0,1,25.95,40.079Z" fill="#3f3d56"/>
      <path id="Path_22303" data-name="Path 22303" d="M957.141,1136.86q-8.475,4.11-17.1,7.92c-9.56-5.43-19.008-11.11-28.4-16.92l34.839-15.31Z" fill="#ffb6b6"/>
      <path id="Path_22304" data-name="Path 22304" d="M1211.15,946.412q-8.49,11.4-17.53,22.348-8.325,10.1-17.1,19.8c-2.42,2.681-4.86,5.349-7.36,7.988q-6.9,7.406-14.11,14.557c-8.65,2.72-26.16,7.51-44.93,11.99-13.67,3.25-27.99,6.33-40.06,8.3a144.908,144.908,0,0,1-20.46,2.18c-8.15.07-16.43-.15-24.73-.6-9.37-.49-18.75-1.27-28.014-2.26-24.105-2.53-47.451-6.47-67.591-10.52-7.377-1.46-14.312-2.96-20.693-4.41-12.088-2.72-22.2-5.26-29.521-7.2-8.247-2.15-12.943-3.55-12.943-3.55l-20.652,34.61-10.719,17.95-7.874,13.2-2.1,3.49c-.884-.48-1.768-.98-2.652-1.46a466.894,466.894,0,0,0-42.989-21.05c-9.642-4.06-19.408-7.72-29.271-10.85h-.014c-3.771-1.19-7.556-2.31-11.355-3.33q1.782-4.785,3.6-9.65,3.4-9.06,6.935-18.28c5.1-13.324,10.374-26.841,15.8-40.288,4.448-11.043,8.979-22.044,13.565-32.893,2.114-5,6.41-9.4,12.419-13.254a72.223,72.223,0,0,1,8.965-4.81c17.2-7.836,42.533-12.936,70.451-16.211,2.306-.263,4.627-.526,6.962-.774,23.11-2.433,47.63-3.691,70.561-4.271,11.479-.29,22.558-.4,32.863-.415q4.993,0,9.711.028h.014c8.495.042,16.314.166,23.194.3,1.34.028,2.64.069,3.91.1h.01c.86.014,1.7.041,2.53.055,15.04.387,24.27.857,24.27.857l3.58-28.084.73-5.666.69-5.39v-.014l.08-.677.57-.014,9.95-.193,83.6-1.631,45.67-.9-7.24,31.042-11.95,51.219C1171.15,945.887,1211.56,939.543,1211.15,946.412Z" fill="#2f2e41"/>
      <path id="Path_22305" data-name="Path 22305" d="M967.446,1131.75q-5.118,2.61-10.3,5.11-8.475,4.11-17.1,7.92c-9.559-5.43-19.007-11.11-28.4-16.91-15.333-9.49-30.515-19.3-45.737-28.88-2.28-1.45-4.545-2.87-6.825-4.28h-.013c-6.272-9.32-12.668-19.02-19.119-29.01-.1-.14-.179-.28-.262-.41q-2.487-3.825-4.946-7.69c-10.318-16.17-20.693-33.03-30.763-50.25l25.5-11.914,47.409-22.141,8.178-3.815,23.511,46.31,20.97,41.31,4.669,9.19Z" fill="#2f2e41"/>
      <path id="Path_22306" data-name="Path 22306" d="M974.591,909.4,1095.46,792.776l33.51-94.906-49.42-21.5c-25.38,24.326-52.82,100.1-52.82,100.1L943.553,882.339c-.649.222-1.295.458-1.934.74A23.813,23.813,0,1,0,974.591,909.4Z" fill="#ffb8b8"/>
      <path id="Path_22307" data-name="Path 22307" d="M1065.64,686.968l62.68,19.909.24-.04c23.33-3.91,42.69-42.032,54.82-73.324a43.683,43.683,0,0,0-22.22-55.316h0a43.737,43.737,0,0,0-45.82,5.783l-32.18,26.313Z" fill="#ff639d"/>
      <path id="Path_22308" data-name="Path 22308" d="M1210.9,947.812l.36-.487c19.56-25.95-7.19-90.212-11.23-99.532l18.18-5.389-3.17-34.64-1.52-15.446,14.14-13.433.04-.343,9.73-69.231,12.72-45.821a101.345,101.345,0,0,0-26.19-98.865l-26.01-25.835-31.16-48.8-52.24-1.349-18.79,33.389a76.191,76.191,0,0,0-60.92,76.26l1.77,88.889-18.75,110.133-.53,20.005-18.394,19.425,3.4,19.639-13.765,5.484-6.735,27.906c-2.572,3.22-19.556,24.7-19.71,30.685-.023.9.618,1.785,2.016,2.786,10.993,7.869,72.434,24.92,100.094,14.669,29.45-10.91,144.9,9.58,146.06,9.789Z" fill="#ff639d"/>
      <path id="Path_22309" data-name="Path 22309" d="M1136.11,473.688a69.246,69.246,0,1,0-69.22-69.246A69.23,69.23,0,0,0,1136.11,473.688Z" fill="#ffb8b8"/>
      <path id="Path_22310" data-name="Path 22310" d="M1127.66,474.612a187.946,187.946,0,0,0,32.02-2.239c10.5-2.135,33.99-19.353,40.53-29.714,4.87-7.7,7.98-19.719,9.73-28.447a84.262,84.262,0,0,0-14.72-66.834,26.6,26.6,0,0,0-10.74-9.169c-.38-.151-.78-.284-1.18-.4a32.793,32.793,0,0,1-16.31-10.1,27.492,27.492,0,0,0-2.72-2.793,40.349,40.349,0,0,0-16.85-8.469c-10.02-2.683-24.52-.019-43.1,7.924-9.34,3.991-19.55,2.547-27.4.843a2.551,2.551,0,0,0-1.32.092,2.616,2.616,0,0,0-1.1.737,18.124,18.124,0,0,1-12.33,4.917c-2.8.123-5.75,4.012-9.31,9.082-.81,1.151-1.75,2.495-2.43,3.312l-.09-1.57-1.59,1.751a22.025,22.025,0,0,0,9.94,35.88,42.91,42.91,0,0,0,8.63,1.377c1.77.159,3.6.323,5.35.627a33.194,33.194,0,0,1,24.66,21.547,8.676,8.676,0,0,0,13.1,4.216,14.339,14.339,0,0,1,13.07-2.381,9.551,9.551,0,0,1,4.21,4.775,12.337,12.337,0,0,0,4.7,5.495c7.12,3.669,7.61,19.925,5.05,33.477-2.46,13.062-7.33,22.511-11.84,22.978-3.47.359-3.86.606-4.11,1.22l-.23.55.39.514a14.172,14.172,0,0,0,5.99.8Z" fill="#2f2e41"/>
      <path id="Path_22311" data-name="Path 22311" d="M1082.83,666.032,1056.14,612.8c-38.73,2.647-115.61,47.456-115.61,47.456L795.072,691.113a26.293,26.293,0,1,0,7.165,44.928l185.031-13.27Z" fill="#ffb8b8"/>
      <path id="Path_22312" data-name="Path 22312" d="M1072.07,674.769l69.69-51.82,12.28-44.264a48.369,48.369,0,0,0-14.53-48.917h0a48.194,48.194,0,0,0-65.79,2.124c-26.23,26.192-56.14,62.732-49.72,88.07l.07.256Z" fill="#ff639d"/>
      <path id="Path_22313" data-name="Path 22313" d="M985.791,813.375H799.3v24.877H985.791Z" fill="#fff"/>
      <path id="Path_22314" data-name="Path 22314" d="M509.213,813.375H322.726v24.877H509.213Z" fill="#fff"/>
      <path id="Path_22315" data-name="Path 22315" d="M530.989,693.741V812.19a5.7,5.7,0,0,0,5.69,5.693H712.121a5.7,5.7,0,0,0,5.69-5.693V693.741a5.7,5.7,0,0,0-5.69-5.686H536.679a5.7,5.7,0,0,0-5.69,5.686Z" fill="#3f3d56"/>
      <path id="Path_22316" data-name="Path 22316" d="M535.1,695.213V810.727a3.047,3.047,0,0,0,3.041,3.042H710.661a3.047,3.047,0,0,0,3.041-3.042V695.213a3.047,3.047,0,0,0-3.041-3.049H538.146a3.049,3.049,0,0,0-3.041,3.049Z" fill="#ff639d"/>
      <path id="Path_22317" data-name="Path 22317" d="M527.32,835.29a3.41,3.41,0,0,0,2.685,1.285H717.862a3.457,3.457,0,0,0,3.379-4.168l-2.916-13.858a3.466,3.466,0,0,0-2.152-2.513,3.345,3.345,0,0,0-1.227-.231H532.909a3.344,3.344,0,0,0-1.226.231,3.465,3.465,0,0,0-2.153,2.513l-2.916,13.858a3.459,3.459,0,0,0,.706,2.883Z" fill="#2f2e41"/>
      <path id="Path_22318" data-name="Path 22318" d="M708.5,821.773h4.437a.675.675,0,0,0,.675-.674v-2.124a.675.675,0,0,0-.675-.675H708.5a.675.675,0,0,0-.674.675V821.1A.674.674,0,0,0,708.5,821.773Z" fill="#3f3d56"/>
      <path id="Path_22319" data-name="Path 22319" d="M696.928,821.773h4.437a.675.675,0,0,0,.675-.674v-2.124a.675.675,0,0,0-.675-.675h-4.437a.675.675,0,0,0-.674.675V821.1A.674.674,0,0,0,696.928,821.773Z" fill="#3f3d56"/>
      <path id="Path_22320" data-name="Path 22320" d="M685.356,821.773h4.438a.674.674,0,0,0,.674-.674v-2.124a.675.675,0,0,0-.674-.675h-4.438a.675.675,0,0,0-.674.675V821.1A.674.674,0,0,0,685.356,821.773Z" fill="#3f3d56"/>
      <path id="Path_22321" data-name="Path 22321" d="M673.785,821.773h4.437a.674.674,0,0,0,.674-.674v-2.124a.675.675,0,0,0-.674-.675h-4.437a.675.675,0,0,0-.675.675V821.1A.675.675,0,0,0,673.785,821.773Z" fill="#3f3d56"/>
      <path id="Path_22322" data-name="Path 22322" d="M662.213,821.773h4.437a.674.674,0,0,0,.674-.674v-2.124a.675.675,0,0,0-.674-.675h-4.437a.675.675,0,0,0-.675.675V821.1A.675.675,0,0,0,662.213,821.773Z" fill="#3f3d56"/>
      <path id="Path_22323" data-name="Path 22323" d="M650.641,821.773h4.437a.675.675,0,0,0,.675-.674v-2.124a.675.675,0,0,0-.675-.675h-4.437a.674.674,0,0,0-.674.675V821.1A.674.674,0,0,0,650.641,821.773Z" fill="#3f3d56"/>
      <path id="Path_22324" data-name="Path 22324" d="M639.069,821.773h4.437a.675.675,0,0,0,.675-.674v-2.124a.675.675,0,0,0-.675-.675h-4.437a.675.675,0,0,0-.674.675V821.1A.674.674,0,0,0,639.069,821.773Z" fill="#3f3d56"/>
      <path id="Path_22325" data-name="Path 22325" d="M627.5,821.773h4.437a.675.675,0,0,0,.675-.674v-2.124a.675.675,0,0,0-.675-.675H627.5a.675.675,0,0,0-.674.675V821.1A.674.674,0,0,0,627.5,821.773Z" fill="#3f3d56"/>
      <path id="Path_22326" data-name="Path 22326" d="M615.925,821.773h4.438a.674.674,0,0,0,.674-.674v-2.124a.675.675,0,0,0-.674-.675h-4.438a.675.675,0,0,0-.674.675V821.1A.674.674,0,0,0,615.925,821.773Z" fill="#3f3d56"/>
      <path id="Path_22327" data-name="Path 22327" d="M604.354,821.773h4.437a.674.674,0,0,0,.674-.674v-2.124a.675.675,0,0,0-.674-.675h-4.437a.675.675,0,0,0-.675.675V821.1A.675.675,0,0,0,604.354,821.773Z" fill="#3f3d56"/>
      <path id="Path_22328" data-name="Path 22328" d="M592.782,821.773h4.437a.674.674,0,0,0,.674-.674v-2.124a.675.675,0,0,0-.674-.675h-4.437a.675.675,0,0,0-.675.675V821.1A.675.675,0,0,0,592.782,821.773Z" fill="#3f3d56"/>
      <path id="Path_22329" data-name="Path 22329" d="M581.21,821.773h4.437a.674.674,0,0,0,.674-.674v-2.124a.674.674,0,0,0-.674-.675H581.21a.675.675,0,0,0-.674.675V821.1A.674.674,0,0,0,581.21,821.773Z" fill="#3f3d56"/>
      <path id="Path_22330" data-name="Path 22330" d="M569.638,821.773h4.437a.675.675,0,0,0,.675-.674v-2.124a.675.675,0,0,0-.675-.675h-4.437a.675.675,0,0,0-.674.675V821.1A.674.674,0,0,0,569.638,821.773Z" fill="#3f3d56"/>
      <path id="Path_22331" data-name="Path 22331" d="M558.066,821.773H562.5a.675.675,0,0,0,.675-.674v-2.124a.675.675,0,0,0-.675-.675h-4.437a.674.674,0,0,0-.674.675V821.1A.674.674,0,0,0,558.066,821.773Z" fill="#3f3d56"/>
      <path id="Path_22332" data-name="Path 22332" d="M546.494,821.773h4.438a.674.674,0,0,0,.674-.674v-2.124a.675.675,0,0,0-.674-.675h-4.438a.675.675,0,0,0-.674.675V821.1A.674.674,0,0,0,546.494,821.773Z" fill="#3f3d56"/>
      <path id="Path_22333" data-name="Path 22333" d="M534.923,821.773h4.437a.674.674,0,0,0,.674-.674v-2.124a.675.675,0,0,0-.674-.675h-4.437a.675.675,0,0,0-.675.675V821.1A.675.675,0,0,0,534.923,821.773Z" fill="#3f3d56"/>
      <path id="Path_22334" data-name="Path 22334" d="M708.637,827.562h4.437a.674.674,0,0,0,.674-.674v-2.124a.675.675,0,0,0-.674-.675h-4.437a.675.675,0,0,0-.675.675v2.124A.675.675,0,0,0,708.637,827.562Z" fill="#3f3d56"/>
      <path id="Path_22335" data-name="Path 22335" d="M697.065,827.562H701.5a.675.675,0,0,0,.675-.674v-2.124a.675.675,0,0,0-.675-.675h-4.437a.675.675,0,0,0-.674.675v2.124A.674.674,0,0,0,697.065,827.562Z" fill="#3f3d56"/>
      <path id="Path_22336" data-name="Path 22336" d="M685.493,827.562h4.437a.675.675,0,0,0,.675-.674v-2.124a.675.675,0,0,0-.675-.675h-4.437a.675.675,0,0,0-.674.675v2.124A.674.674,0,0,0,685.493,827.562Z" fill="#3f3d56"/>
      <path id="Path_22337" data-name="Path 22337" d="M673.921,827.562h4.438a.674.674,0,0,0,.674-.674v-2.124a.675.675,0,0,0-.674-.675h-4.438a.675.675,0,0,0-.674.675v2.124A.674.674,0,0,0,673.921,827.562Z" fill="#3f3d56"/>
      <path id="Path_22338" data-name="Path 22338" d="M662.35,827.562h4.437a.674.674,0,0,0,.674-.674v-2.124a.675.675,0,0,0-.674-.675H662.35a.675.675,0,0,0-.675.675v2.124A.675.675,0,0,0,662.35,827.562Z" fill="#3f3d56"/>
      <path id="Path_22339" data-name="Path 22339" d="M650.778,827.562h4.437a.674.674,0,0,0,.674-.674v-2.124a.675.675,0,0,0-.674-.675h-4.437a.675.675,0,0,0-.675.675v2.124A.675.675,0,0,0,650.778,827.562Z" fill="#3f3d56"/>
      <path id="Path_22340" data-name="Path 22340" d="M639.206,827.562h4.437a.674.674,0,0,0,.674-.674v-2.124a.675.675,0,0,0-.674-.675h-4.437a.675.675,0,0,0-.675.675v2.124A.675.675,0,0,0,639.206,827.562Z" fill="#3f3d56"/>
      <path id="Path_22341" data-name="Path 22341" d="M627.634,827.562h4.437a.675.675,0,0,0,.675-.674v-2.124a.675.675,0,0,0-.675-.675h-4.437a.675.675,0,0,0-.674.675v2.124A.674.674,0,0,0,627.634,827.562Z" fill="#3f3d56"/>
      <path id="Path_22342" data-name="Path 22342" d="M616.062,827.562H620.5a.675.675,0,0,0,.675-.674v-2.124a.675.675,0,0,0-.675-.675h-4.437a.675.675,0,0,0-.674.675v2.124A.674.674,0,0,0,616.062,827.562Z" fill="#3f3d56"/>
      <path id="Path_22343" data-name="Path 22343" d="M604.49,827.562h4.438a.674.674,0,0,0,.674-.674v-2.124a.675.675,0,0,0-.674-.675H604.49a.675.675,0,0,0-.674.675v2.124A.674.674,0,0,0,604.49,827.562Z" fill="#3f3d56"/>
      <path id="Path_22344" data-name="Path 22344" d="M592.918,827.562h4.438a.674.674,0,0,0,.674-.674v-2.124a.675.675,0,0,0-.674-.675h-4.438a.675.675,0,0,0-.674.675v2.124A.674.674,0,0,0,592.918,827.562Z" fill="#3f3d56"/>
      <path id="Path_22345" data-name="Path 22345" d="M581.347,827.562h4.437a.674.674,0,0,0,.674-.674v-2.124a.675.675,0,0,0-.674-.675h-4.437a.675.675,0,0,0-.675.675v2.124A.675.675,0,0,0,581.347,827.562Z" fill="#3f3d56"/>
      <path id="Path_22346" data-name="Path 22346" d="M569.775,827.562h4.437a.674.674,0,0,0,.674-.674v-2.124a.675.675,0,0,0-.674-.675h-4.437a.675.675,0,0,0-.675.675v2.124A.675.675,0,0,0,569.775,827.562Z" fill="#3f3d56"/>
      <path id="Path_22347" data-name="Path 22347" d="M558.2,827.562h4.437a.675.675,0,0,0,.675-.674v-2.124a.675.675,0,0,0-.675-.675H558.2a.675.675,0,0,0-.674.675v2.124A.674.674,0,0,0,558.2,827.562Z" fill="#3f3d56"/>
      <path id="Path_22348" data-name="Path 22348" d="M546.631,827.562h4.437a.675.675,0,0,0,.675-.674v-2.124a.675.675,0,0,0-.675-.675h-4.437a.675.675,0,0,0-.674.675v2.124A.674.674,0,0,0,546.631,827.562Z" fill="#3f3d56"/>
      <path id="Path_22349" data-name="Path 22349" d="M535.059,827.562H539.5a.674.674,0,0,0,.674-.674v-2.124a.675.675,0,0,0-.674-.675h-4.438a.675.675,0,0,0-.674.675v2.124A.674.674,0,0,0,535.059,827.562Z" fill="#3f3d56"/>
      <path id="Path_22350" data-name="Path 22350" d="M612.591,834.508h44.938a.675.675,0,0,0,.675-.675v-2.124a.675.675,0,0,0-.675-.674H612.591a.675.675,0,0,0-.675.674v2.124A.675.675,0,0,0,612.591,834.508Z" fill="#3f3d56"/>
      <path id="Path_25492" data-name="Path 25492" d="M5.979,0c3.3,0,5.979,3.212,5.979,7.175s-2.677,7.175-5.979,7.175S0,11.137,0,7.175,2.677,0,5.979,0Z" transform="translate(1073 408)" fill="#2f2e41"/>
      <path id="Path_25492-2" data-name="Path 25492" d="M6.018,0c3.323,0,6.018,3.233,6.018,7.221s-2.694,7.221-6.018,7.221S0,11.209,0,7.221,2.694,0,6.018,0Z" transform="translate(489 405)" fill="#2f2e41"/>
      <path id="Path_25517" data-name="Path 25517" d="M6.018,0c3.323,0,6.018,3.233,6.018,7.221s-2.694,7.221-6.018,7.221S0,11.209,0,7.221,2.694,0,6.018,0Z" transform="translate(526.515 403.229)" fill="#2f2e41"/>
    </g>
  </g>
  <circle id="Ellipse_1509" data-name="Ellipse 1509" cx="51" cy="51" r="51" transform="translate(813.399 253.239)" fill="#ff6584"/>
  <path id="Path_21946" data-name="Path 21946" d="M464.3,119.43c-24.717-3.341-52.935,10.019-59.341,34.124a21.6,21.6,0,0,0-41.094,2.109l2.83,2.027a372.274,372.274,0,0,0,160.659-.726C510.164,138.893,489.02,122.771,464.3,119.43Z" transform="translate(492.132 145.68)" fill="#f0f0f0"/>
  <path id="Path_21947" data-name="Path 21947" d="M358.3,187.43c-24.717-3.341-52.935,10.019-59.341,34.124a21.6,21.6,0,0,0-41.093,2.109l2.83,2.027a372.274,372.274,0,0,0,160.659-.726C404.164,206.893,383.02,190.771,358.3,187.43Z" transform="translate(492.132 145.68)" fill="#f0f0f0"/>
</svg>
